<svg width="104" height="62" viewBox="0 0 104 62" fill="none" xmlns="http://www.w3.org/2000/svg" xmlns:xlink="http://www.w3.org/1999/xlink">
<path d="M89.446,-0.84L12.553,-0.84L12.553,60.84L89.446,60.84L89.446,-0.84Z" fill="#F1F5F7"/>
<path d="M51,36.486L89.446,60.84L89.446,12.76L51,36.486Z" fill="#DCE6EA"/>
<path d="M92.65,-0.84L89.446,-0.84L51,23.513L12.552,-0.84L9.349,-0.84C4.044,-0.84 -0.263,2.613 -0.263,6.87L-0.263,53.13C-0.263,57.386 4.044,60.84 9.349,60.84L12.552,60.84L12.552,12.76L51,36.481L89.446,12.754L89.446,60.84L92.65,60.84C97.956,60.84 102.262,57.385 102.262,53.13L102.262,6.87C102.262,2.613 97.956,-0.84 92.65,-0.84Z" fill="#F84437"/>
</svg>
