<svg width="102" height="88" viewBox="0 0 102 88" fill="none" xmlns="http://www.w3.org/2000/svg" xmlns:xlink="http://www.w3.org/1999/xlink">
<path d="M12.75,0L89.25,0C96.262,0 102,4.95 102,11L102,77C102,83.05 96.262,88 89.25,88L12.75,88C5.737,88 0,83.05 0,77L0,11C0,4.95 5.737,0 12.75,0Z" fill="url(#pf_0_13_468)"/>
<path d="M67.575,13.75L34.425,13.75C24.225,13.75 15.938,21.175 15.938,29.975L15.938,58.025C15.938,66.825 24.225,74.25 34.425,74.25L67.575,74.25C77.775,74.25 86.063,66.825 86.063,58.025L86.063,29.975C86.063,21.175 77.775,13.75 67.575,13.75ZM79.688,57.475C79.688,63.525 73.95,68.75 66.938,68.75L35.063,68.75C28.05,68.75 22.313,63.525 22.313,57.475L22.313,30.25C22.313,24.2 27.731,19.25 35.063,19.25L66.938,19.25C73.95,19.25 79.688,24.475 79.688,30.525L79.688,57.475Z" fill="#FFFFFF"/>
<path d="M51,28.6C41.118,28.325 32.831,35.2 32.512,43.725C32.193,52.25 40.162,59.4 50.043,59.675C59.925,59.95 68.212,53.075 68.531,44.55L68.531,44.275C68.85,35.475 60.881,28.6 51,28.6ZM51,53.9C44.625,53.9 39.206,49.5 39.206,44C39.206,38.5 44.306,33.825 50.681,33.825C57.056,33.825 62.475,38.225 62.475,43.725L62.475,44C62.475,49.5 57.375,53.9 51,53.9Z" fill="#FFFFFF"/>
<path d="M69.487,31.075C71.6,31.075 73.312,29.474 73.312,27.5C73.312,25.526 71.6,23.925 69.487,23.925C67.375,23.925 65.662,25.526 65.662,27.5C65.662,29.474 67.375,31.075 69.487,31.075Z" fill="#FFFFFF"/>
<defs>
<linearGradient id="pf_0_13_468" x1="18.499" y1="92.567" x2="83.501" y2="-4.567" gradientUnits="userSpaceOnUse">
<stop stop-color="#FEC053"/>
<stop offset="0.327" stop-color="#F2203E"/>
<stop offset="0.648" stop-color="#B729A8"/>
<stop offset="1" stop-color="#5342D6"/>
</linearGradient>
</defs>
</svg>
