<svg width="144" height="144" viewBox="0 0 144 144" fill="none" xmlns="http://www.w3.org/2000/svg" xmlns:xlink="http://www.w3.org/1999/xlink">
<path d="M16,144L128,144C136.837,144 144,136.837 144,128L144,16C144,7.163 136.837,0 128,0L16,0C7.163,0 0,7.163 0,16L0,128C0,136.837 7.163,144 16,144Z" clip-rule="evenodd" fill-rule="evenodd" fill="#3E75C3"/>
<path d="M71.997,24C45.492,24 24,45.574 24,72.193C24,93.481 37.752,111.544 56.829,117.917C59.229,118.36 60.105,116.872 60.105,115.595C60.105,114.45 60.063,111.42 60.039,107.399C46.686,110.312 43.869,100.939 43.869,100.939C41.688,95.373 38.541,93.891 38.541,93.891C34.182,90.9 38.871,90.96 38.871,90.96C43.686,91.301 46.221,95.927 46.221,95.927C50.505,103.291 57.456,101.165 60.192,99.93C60.627,96.816 61.869,94.692 63.24,93.487C52.581,92.271 41.376,88.138 41.376,69.672C41.376,64.411 43.245,60.11 46.317,56.739C45.822,55.519 44.175,50.622 46.785,43.987C46.785,43.987 50.817,42.692 59.985,48.926C63.816,47.857 67.92,47.324 72.003,47.303C76.08,47.324 80.187,47.857 84.021,48.926C93.183,42.692 97.206,43.987 97.206,43.987C99.825,50.622 98.178,55.519 97.683,56.739C100.761,60.11 102.618,64.411 102.618,69.672C102.618,88.183 91.395,92.259 80.703,93.451C82.425,94.939 83.961,97.879 83.961,102.375C83.961,108.818 83.901,114.013 83.901,115.595C83.901,116.884 84.765,118.384 87.201,117.911C106.26,111.526 120,93.475 120,72.193C120,45.574 98.508,24 71.997,24Z" clip-rule="evenodd" fill-rule="evenodd" fill="#FFFFFF"/>
</svg>
