<svg width="144" height="144" viewBox="0 0 144 144" fill="none" xmlns="http://www.w3.org/2000/svg" xmlns:xlink="http://www.w3.org/1999/xlink">
<path d="M18,0L126,0C135.9,0 144,8.1 144,18L144,126C144,135.9 135.9,144 126,144L18,144C8.1,144 0,135.9 0,126L0,18C0,8.1 8.1,0 18,0Z" fill="url(#pf_0_15_19)"/>
<path d="M95.4,22.5L48.6,22.5C34.2,22.5 22.5,34.65 22.5,49.05L22.5,94.95C22.5,109.35 34.2,121.5 48.6,121.5L95.4,121.5C109.8,121.5 121.5,109.35 121.5,94.95L121.5,49.05C121.5,34.65 109.8,22.5 95.4,22.5ZM112.5,94.05C112.5,103.95 104.4,112.5 94.5,112.5L49.5,112.5C39.6,112.5 31.5,103.95 31.5,94.05L31.5,49.5C31.5,39.6 39.15,31.5 49.5,31.5L94.5,31.5C104.4,31.5 112.5,40.05 112.5,49.95L112.5,94.05Z" fill="#FFFFFF"/>
<path d="M72,46.8C58.05,46.35 46.35,57.6 45.9,71.55C45.45,85.5 56.7,97.2 70.65,97.65C84.6,98.1 96.3,86.85 96.75,72.9L96.75,72.45C97.2,58.05 85.95,46.8 72,46.8ZM72,88.2C63,88.2 55.35,81 55.35,72C55.35,63 62.55,55.35 71.55,55.35C80.55,55.35 88.2,62.55 88.2,71.55L88.2,72C88.2,81 81,88.2 72,88.2Z" fill="#FFFFFF"/>
<path d="M98.1,50.85C101.082,50.85 103.5,48.231 103.5,45C103.5,41.769 101.082,39.15 98.1,39.15C95.118,39.15 92.7,41.769 92.7,45C92.7,48.231 95.118,50.85 98.1,50.85Z" fill="#FFFFFF"/>
<defs>
<linearGradient id="pf_0_15_19" x1="26.116" y1="151.474" x2="117.884" y2="-7.474" gradientUnits="userSpaceOnUse">
<stop stop-color="#FEC053"/>
<stop offset="0.327" stop-color="#F2203E"/>
<stop offset="0.648" stop-color="#B729A8"/>
<stop offset="1" stop-color="#5342D6"/>
</linearGradient>
</defs>
</svg>
